<mxfile host="app.diagrams.net" modified="2023-04-03T08:44:55.551Z" agent="Mozilla/5.0 (Windows NT 10.0; Win64; x64; rv:109.0) Gecko/20100101 Firefox/111.0" etag="EoLTDhySGP9l4DNgt0ly" version="21.1.2" type="device">
  <diagram name="Seite-1" id="CnZlKtpoj7JNaNqTAyAu">
    <mxGraphModel dx="574" dy="361" grid="1" gridSize="10" guides="1" tooltips="1" connect="1" arrows="1" fold="1" page="1" pageScale="1" pageWidth="827" pageHeight="1169" math="0" shadow="0">
      <root>
        <mxCell id="0" />
        <mxCell id="1" parent="0" />
        <mxCell id="hhMwH7WwDbpFI1tjJ9G6-1" value="" style="rounded=0;whiteSpace=wrap;html=1;" vertex="1" parent="1">
          <mxGeometry x="80" y="40" width="480" height="280" as="geometry" />
        </mxCell>
        <mxCell id="hhMwH7WwDbpFI1tjJ9G6-2" value="&lt;div&gt;HEADWAY&lt;/div&gt;&lt;div&gt;(logo)&lt;br&gt;&lt;/div&gt;" style="text;html=1;strokeColor=none;fillColor=none;align=center;verticalAlign=middle;whiteSpace=wrap;rounded=0;" vertex="1" parent="1">
          <mxGeometry x="290" y="165" width="60" height="30" as="geometry" />
        </mxCell>
        <mxCell id="hhMwH7WwDbpFI1tjJ9G6-3" value="&lt;div&gt;about | artists | dates | sets&lt;/div&gt;&lt;div&gt;[social links]&lt;br&gt;&lt;/div&gt;" style="rounded=0;whiteSpace=wrap;html=1;" vertex="1" parent="1">
          <mxGeometry x="240" y="200" width="160" height="40" as="geometry" />
        </mxCell>
        <mxCell id="hhMwH7WwDbpFI1tjJ9G6-4" value="" style="rounded=0;whiteSpace=wrap;html=1;" vertex="1" parent="1">
          <mxGeometry x="80" y="360" width="480" height="280" as="geometry" />
        </mxCell>
        <mxCell id="hhMwH7WwDbpFI1tjJ9G6-5" value="artists" style="text;html=1;strokeColor=none;fillColor=none;align=center;verticalAlign=middle;whiteSpace=wrap;rounded=0;" vertex="1" parent="1">
          <mxGeometry x="290" y="370" width="60" height="30" as="geometry" />
        </mxCell>
        <mxCell id="hhMwH7WwDbpFI1tjJ9G6-7" value="" style="endArrow=none;dashed=1;html=1;dashPattern=1 3;strokeWidth=2;rounded=0;exitX=0.25;exitY=1;exitDx=0;exitDy=0;" edge="1" parent="1" source="hhMwH7WwDbpFI1tjJ9G6-4">
          <mxGeometry width="50" height="50" relative="1" as="geometry">
            <mxPoint x="200" y="630" as="sourcePoint" />
            <mxPoint x="200" y="360" as="targetPoint" />
          </mxGeometry>
        </mxCell>
        <mxCell id="hhMwH7WwDbpFI1tjJ9G6-8" value="" style="endArrow=none;dashed=1;html=1;dashPattern=1 3;strokeWidth=2;rounded=0;exitX=0.25;exitY=1;exitDx=0;exitDy=0;" edge="1" parent="1">
          <mxGeometry width="50" height="50" relative="1" as="geometry">
            <mxPoint x="440" y="640" as="sourcePoint" />
            <mxPoint x="440" y="360" as="targetPoint" />
          </mxGeometry>
        </mxCell>
        <mxCell id="hhMwH7WwDbpFI1tjJ9G6-9" value="" style="rounded=0;whiteSpace=wrap;html=1;" vertex="1" parent="1">
          <mxGeometry x="220" y="410" width="40" height="40" as="geometry" />
        </mxCell>
        <mxCell id="hhMwH7WwDbpFI1tjJ9G6-10" value="" style="rounded=0;whiteSpace=wrap;html=1;" vertex="1" parent="1">
          <mxGeometry x="270" y="410" width="40" height="40" as="geometry" />
        </mxCell>
        <mxCell id="hhMwH7WwDbpFI1tjJ9G6-11" value="" style="rounded=0;whiteSpace=wrap;html=1;" vertex="1" parent="1">
          <mxGeometry x="320" y="410" width="40" height="40" as="geometry" />
        </mxCell>
        <mxCell id="hhMwH7WwDbpFI1tjJ9G6-12" value="" style="rounded=0;whiteSpace=wrap;html=1;" vertex="1" parent="1">
          <mxGeometry x="373.5" y="410" width="40" height="40" as="geometry" />
        </mxCell>
        <mxCell id="hhMwH7WwDbpFI1tjJ9G6-13" value="" style="rounded=0;whiteSpace=wrap;html=1;" vertex="1" parent="1">
          <mxGeometry x="220" y="470" width="40" height="40" as="geometry" />
        </mxCell>
        <mxCell id="hhMwH7WwDbpFI1tjJ9G6-14" value="" style="rounded=0;whiteSpace=wrap;html=1;" vertex="1" parent="1">
          <mxGeometry x="270" y="470" width="40" height="40" as="geometry" />
        </mxCell>
        <mxCell id="hhMwH7WwDbpFI1tjJ9G6-15" value="" style="rounded=0;whiteSpace=wrap;html=1;" vertex="1" parent="1">
          <mxGeometry x="320" y="470" width="40" height="40" as="geometry" />
        </mxCell>
        <mxCell id="hhMwH7WwDbpFI1tjJ9G6-16" value="" style="rounded=0;whiteSpace=wrap;html=1;" vertex="1" parent="1">
          <mxGeometry x="373.5" y="470" width="40" height="40" as="geometry" />
        </mxCell>
        <mxCell id="hhMwH7WwDbpFI1tjJ9G6-17" value="" style="rounded=0;whiteSpace=wrap;html=1;" vertex="1" parent="1">
          <mxGeometry x="220" y="530" width="40" height="40" as="geometry" />
        </mxCell>
        <mxCell id="hhMwH7WwDbpFI1tjJ9G6-18" value="" style="rounded=0;whiteSpace=wrap;html=1;" vertex="1" parent="1">
          <mxGeometry x="270" y="530" width="40" height="40" as="geometry" />
        </mxCell>
        <mxCell id="hhMwH7WwDbpFI1tjJ9G6-19" value="" style="rounded=0;whiteSpace=wrap;html=1;" vertex="1" parent="1">
          <mxGeometry x="320" y="530" width="40" height="40" as="geometry" />
        </mxCell>
        <mxCell id="hhMwH7WwDbpFI1tjJ9G6-20" value="" style="rounded=0;whiteSpace=wrap;html=1;" vertex="1" parent="1">
          <mxGeometry x="373.5" y="530" width="40" height="40" as="geometry" />
        </mxCell>
        <mxCell id="hhMwH7WwDbpFI1tjJ9G6-21" value="" style="rounded=0;whiteSpace=wrap;html=1;" vertex="1" parent="1">
          <mxGeometry x="220" y="585" width="40" height="40" as="geometry" />
        </mxCell>
        <mxCell id="hhMwH7WwDbpFI1tjJ9G6-22" value="" style="rounded=0;whiteSpace=wrap;html=1;" vertex="1" parent="1">
          <mxGeometry x="270" y="585" width="40" height="40" as="geometry" />
        </mxCell>
        <mxCell id="hhMwH7WwDbpFI1tjJ9G6-23" value="" style="rounded=0;whiteSpace=wrap;html=1;" vertex="1" parent="1">
          <mxGeometry x="320" y="585" width="40" height="40" as="geometry" />
        </mxCell>
        <mxCell id="hhMwH7WwDbpFI1tjJ9G6-24" value="" style="rounded=0;whiteSpace=wrap;html=1;" vertex="1" parent="1">
          <mxGeometry x="373.5" y="585" width="40" height="40" as="geometry" />
        </mxCell>
        <mxCell id="hhMwH7WwDbpFI1tjJ9G6-25" value="" style="rounded=0;whiteSpace=wrap;html=1;" vertex="1" parent="1">
          <mxGeometry x="80" y="680" width="480" height="280" as="geometry" />
        </mxCell>
        <mxCell id="hhMwH7WwDbpFI1tjJ9G6-26" value="" style="endArrow=none;dashed=1;html=1;dashPattern=1 3;strokeWidth=2;rounded=0;exitX=0.25;exitY=1;exitDx=0;exitDy=0;" edge="1" parent="1">
          <mxGeometry width="50" height="50" relative="1" as="geometry">
            <mxPoint x="200" y="960" as="sourcePoint" />
            <mxPoint x="200" y="680" as="targetPoint" />
          </mxGeometry>
        </mxCell>
        <mxCell id="hhMwH7WwDbpFI1tjJ9G6-27" value="" style="endArrow=none;dashed=1;html=1;dashPattern=1 3;strokeWidth=2;rounded=0;exitX=0.25;exitY=1;exitDx=0;exitDy=0;" edge="1" parent="1">
          <mxGeometry width="50" height="50" relative="1" as="geometry">
            <mxPoint x="440" y="960" as="sourcePoint" />
            <mxPoint x="440" y="680" as="targetPoint" />
          </mxGeometry>
        </mxCell>
        <mxCell id="hhMwH7WwDbpFI1tjJ9G6-28" value=":D" style="rounded=0;whiteSpace=wrap;html=1;" vertex="1" parent="1">
          <mxGeometry x="220" y="720" width="80" height="80" as="geometry" />
        </mxCell>
        <mxCell id="hhMwH7WwDbpFI1tjJ9G6-29" value="&lt;div align=&quot;left&quot;&gt;bla bla bla text text ich bin ein blindtext und werde final noch ersetzt yeet skrrt utz utz&lt;/div&gt;" style="text;html=1;strokeColor=none;fillColor=none;align=left;verticalAlign=middle;whiteSpace=wrap;rounded=0;" vertex="1" parent="1">
          <mxGeometry x="300" y="740" width="140" height="60" as="geometry" />
        </mxCell>
        <mxCell id="hhMwH7WwDbpFI1tjJ9G6-30" value="bla bla bla text text ich bin ein blindtext und werde final noch ersetzt yeet skrrt utz utz" style="text;html=1;strokeColor=none;fillColor=none;align=left;verticalAlign=middle;whiteSpace=wrap;rounded=0;" vertex="1" parent="1">
          <mxGeometry x="220" y="810" width="220" height="40" as="geometry" />
        </mxCell>
        <mxCell id="hhMwH7WwDbpFI1tjJ9G6-31" value="&lt;div align=&quot;left&quot;&gt;&lt;b&gt;DJ badtiming&lt;/b&gt;&lt;/div&gt;" style="text;html=1;strokeColor=none;fillColor=none;align=left;verticalAlign=middle;whiteSpace=wrap;rounded=0;" vertex="1" parent="1">
          <mxGeometry x="300" y="720" width="140" height="20" as="geometry" />
        </mxCell>
        <mxCell id="hhMwH7WwDbpFI1tjJ9G6-33" value="sets" style="text;html=1;strokeColor=none;fillColor=#999999;align=left;verticalAlign=middle;whiteSpace=wrap;rounded=0;labelBackgroundColor=none;" vertex="1" parent="1">
          <mxGeometry x="220" y="860" width="210" height="20" as="geometry" />
        </mxCell>
        <mxCell id="hhMwH7WwDbpFI1tjJ9G6-34" value="&lt;div align=&quot;left&quot;&gt;booking&lt;/div&gt;" style="text;html=1;strokeColor=none;fillColor=#999999;align=left;verticalAlign=middle;whiteSpace=wrap;rounded=0;labelBackgroundColor=none;" vertex="1" parent="1">
          <mxGeometry x="220" y="890" width="210" height="20" as="geometry" />
        </mxCell>
        <mxCell id="hhMwH7WwDbpFI1tjJ9G6-35" value="socials" style="text;html=1;strokeColor=none;fillColor=#999999;align=left;verticalAlign=middle;whiteSpace=wrap;rounded=0;labelBackgroundColor=none;" vertex="1" parent="1">
          <mxGeometry x="220" y="920" width="210" height="20" as="geometry" />
        </mxCell>
        <mxCell id="hhMwH7WwDbpFI1tjJ9G6-36" value="" style="rounded=0;whiteSpace=wrap;html=1;" vertex="1" parent="1">
          <mxGeometry x="80" y="1000" width="480" height="280" as="geometry" />
        </mxCell>
        <mxCell id="hhMwH7WwDbpFI1tjJ9G6-37" value="" style="endArrow=none;dashed=1;html=1;dashPattern=1 3;strokeWidth=2;rounded=0;exitX=0.25;exitY=1;exitDx=0;exitDy=0;" edge="1" parent="1" source="hhMwH7WwDbpFI1tjJ9G6-36">
          <mxGeometry width="50" height="50" relative="1" as="geometry">
            <mxPoint x="150" y="1050" as="sourcePoint" />
            <mxPoint x="200" y="1000" as="targetPoint" />
          </mxGeometry>
        </mxCell>
        <mxCell id="hhMwH7WwDbpFI1tjJ9G6-38" value="" style="endArrow=none;dashed=1;html=1;dashPattern=1 3;strokeWidth=2;rounded=0;exitX=0.25;exitY=1;exitDx=0;exitDy=0;" edge="1" parent="1">
          <mxGeometry width="50" height="50" relative="1" as="geometry">
            <mxPoint x="440" y="1280" as="sourcePoint" />
            <mxPoint x="440" y="1000" as="targetPoint" />
          </mxGeometry>
        </mxCell>
        <mxCell id="hhMwH7WwDbpFI1tjJ9G6-40" value="dates" style="text;html=1;strokeColor=none;fillColor=none;align=center;verticalAlign=middle;whiteSpace=wrap;rounded=0;" vertex="1" parent="1">
          <mxGeometry x="290" y="1010" width="60" height="30" as="geometry" />
        </mxCell>
        <mxCell id="hhMwH7WwDbpFI1tjJ9G6-41" value="&amp;lt; back" style="text;html=1;strokeColor=none;fillColor=none;align=left;verticalAlign=middle;whiteSpace=wrap;rounded=0;" vertex="1" parent="1">
          <mxGeometry x="220" y="690" width="210" height="20" as="geometry" />
        </mxCell>
        <mxCell id="hhMwH7WwDbpFI1tjJ9G6-42" value="&lt;div&gt;(club-&lt;/div&gt;&lt;div&gt;promo)&lt;br&gt;&lt;/div&gt;" style="rounded=0;whiteSpace=wrap;html=1;" vertex="1" parent="1">
          <mxGeometry x="215" y="1040" width="50" height="50" as="geometry" />
        </mxCell>
        <mxCell id="hhMwH7WwDbpFI1tjJ9G6-43" value="&lt;b&gt;current hot date&lt;br&gt;&lt;/b&gt;" style="text;html=1;strokeColor=none;fillColor=none;align=left;verticalAlign=middle;whiteSpace=wrap;rounded=0;" vertex="1" parent="1">
          <mxGeometry x="270" y="1040" width="160" height="20" as="geometry" />
        </mxCell>
        <mxCell id="hhMwH7WwDbpFI1tjJ9G6-44" value="rillos epischer garagenrave" style="text;html=1;strokeColor=none;fillColor=none;align=left;verticalAlign=middle;whiteSpace=wrap;rounded=0;" vertex="1" parent="1">
          <mxGeometry x="270" y="1060" width="160" height="10" as="geometry" />
        </mxCell>
        <mxCell id="hhMwH7WwDbpFI1tjJ9G6-45" value="" style="endArrow=none;dashed=1;html=1;rounded=0;" edge="1" parent="1">
          <mxGeometry width="50" height="50" relative="1" as="geometry">
            <mxPoint x="200" y="1130" as="sourcePoint" />
            <mxPoint x="440" y="1130" as="targetPoint" />
          </mxGeometry>
        </mxCell>
        <mxCell id="hhMwH7WwDbpFI1tjJ9G6-46" value="" style="rounded=0;whiteSpace=wrap;html=1;" vertex="1" parent="1">
          <mxGeometry x="670" y="1010" width="120" height="60" as="geometry" />
        </mxCell>
        <mxCell id="hhMwH7WwDbpFI1tjJ9G6-47" value="MERKEN" style="text;html=1;strokeColor=none;fillColor=#B3B3B3;align=center;verticalAlign=middle;whiteSpace=wrap;rounded=0;" vertex="1" parent="1">
          <mxGeometry x="215" y="1100" width="215" height="20" as="geometry" />
        </mxCell>
        <mxCell id="hhMwH7WwDbpFI1tjJ9G6-48" value="&lt;font style=&quot;font-size: 8px;&quot;&gt;20.4.2023, 4:20 @ Garage von Rillo&lt;br&gt;&lt;/font&gt;" style="text;html=1;strokeColor=none;fillColor=none;align=left;verticalAlign=middle;whiteSpace=wrap;rounded=0;" vertex="1" parent="1">
          <mxGeometry x="270" y="1070" width="150" height="10" as="geometry" />
        </mxCell>
        <mxCell id="hhMwH7WwDbpFI1tjJ9G6-49" value="" style="rounded=0;whiteSpace=wrap;html=1;" vertex="1" parent="1">
          <mxGeometry x="215" y="1140" width="215" height="50" as="geometry" />
        </mxCell>
        <mxCell id="hhMwH7WwDbpFI1tjJ9G6-50" value="" style="rounded=0;whiteSpace=wrap;html=1;" vertex="1" parent="1">
          <mxGeometry x="225" y="1150" width="30" height="30" as="geometry" />
        </mxCell>
        <mxCell id="hhMwH7WwDbpFI1tjJ9G6-52" value="rillos epischer garagenrave" style="text;html=1;strokeColor=none;fillColor=none;align=left;verticalAlign=middle;whiteSpace=wrap;rounded=0;" vertex="1" parent="1">
          <mxGeometry x="260" y="1150" width="160" height="10" as="geometry" />
        </mxCell>
        <mxCell id="hhMwH7WwDbpFI1tjJ9G6-53" value="&lt;font style=&quot;font-size: 8px;&quot;&gt;20.4.2023, 4:20 @ Garage von Rillo&lt;br&gt;&lt;/font&gt;" style="text;html=1;strokeColor=none;fillColor=none;align=left;verticalAlign=middle;whiteSpace=wrap;rounded=0;" vertex="1" parent="1">
          <mxGeometry x="260" y="1160" width="150" height="10" as="geometry" />
        </mxCell>
        <mxCell id="hhMwH7WwDbpFI1tjJ9G6-54" value="no date left" style="text;html=1;strokeColor=none;fillColor=none;align=center;verticalAlign=middle;whiteSpace=wrap;rounded=0;" vertex="1" parent="1">
          <mxGeometry x="220" y="1210" width="210" height="30" as="geometry" />
        </mxCell>
      </root>
    </mxGraphModel>
  </diagram>
</mxfile>
